<svg width="16" height="16" viewBox="0 0 16 16" fill="none" xmlns="http://www.w3.org/2000/svg">
<g id="Frame">
<path id="Vector" d="M5.86668 11.85H10.1333C10.2889 11.85 10.4195 11.7972 10.525 11.6917C10.6306 11.5861 10.6833 11.4556 10.6833 11.3C10.6833 11.1445 10.6306 11.0139 10.525 10.9083C10.4195 10.8028 10.2889 10.75 10.1333 10.75H5.86668C5.71113 10.75 5.58057 10.8028 5.47502 10.9083C5.36946 11.0139 5.31668 11.1445 5.31668 11.3C5.31668 11.4556 5.36946 11.5861 5.47502 11.6917C5.58057 11.7972 5.71113 11.85 5.86668 11.85ZM5.86668 9.01668H10.1333C10.2889 9.01668 10.4195 8.9639 10.525 8.85834C10.6306 8.75279 10.6833 8.62223 10.6833 8.46668C10.6833 8.31112 10.6306 8.18057 10.525 8.07501C10.4195 7.96945 10.2889 7.91668 10.1333 7.91668H5.86668C5.71113 7.91668 5.58057 7.96945 5.47502 8.07501C5.36946 8.18057 5.31668 8.31112 5.31668 8.46668C5.31668 8.62223 5.36946 8.75279 5.47502 8.85834C5.58057 8.9639 5.71113 9.01668 5.86668 9.01668ZM3.75002 14.9C3.39446 14.9 3.08613 14.7695 2.82502 14.5083C2.56391 14.2472 2.43335 13.9389 2.43335 13.5833V2.41668C2.43335 2.05001 2.56391 1.73612 2.82502 1.47501C3.08613 1.2139 3.39446 1.08334 3.75002 1.08334H9.23335C9.41113 1.08334 9.58335 1.12223 9.75002 1.20001C9.91668 1.27779 10.0611 1.37779 10.1833 1.50001L13.1667 4.48334C13.2889 4.60557 13.3889 4.75001 13.4667 4.91668C13.5445 5.08334 13.5834 5.25557 13.5834 5.43334V13.5833C13.5834 13.9389 13.4528 14.2472 13.1917 14.5083C12.9306 14.7695 12.6167 14.9 12.25 14.9H3.75002ZM9.10002 4.85001C9.10002 5.0389 9.16391 5.19723 9.29168 5.32501C9.41946 5.45279 9.57779 5.51668 9.76668 5.51668H12.25L9.10002 2.41668V4.85001Z" fill="white" fill-opacity="0.85"/>
</g>
</svg>
