<svg width="99" height="38" viewBox="0 0 99 38" fill="none" xmlns="http://www.w3.org/2000/svg">
<path id="Vector" d="M81.5008 0.80542C77.0718 0.80542 73.0425 2.34133 69.9411 4.9296C64.385 9.56367 57.3717 12.0667 50.1468 12.0667H48.955C41.653 12.0667 34.6041 9.46603 28.9863 4.78391C24.7702 1.27038 18.9302 -0.226784 12.9774 1.56795C5.31253 3.87879 0.228882 11.1972 0.228882 19.2317V19.8532C0.228882 29.2345 8.1577 37.1945 18.0687 37.1945C22.0424 37.1945 25.7552 35.7532 28.71 33.3741C34.476 28.7354 41.4878 25.9333 48.8778 25.9333H50.9696C57.9799 25.9333 64.6305 28.6254 70.0476 33.0921C73.1552 35.6555 77.1752 37.2147 81.5888 37.193C91.0429 37.1465 98.771 28.9137 98.771 19.4223V18.4304C98.7726 8.48032 90.8453 0.80542 81.5008 0.80542Z" fill="white"/>
</svg>
