<svg width="388" height="166" viewBox="0 0 388 166" fill="none" xmlns="http://www.w3.org/2000/svg">
<path d="M315.536 145.5C309.707 145.5 305.043 140.861 305.043 135.23V71.2931C305.043 65.6617 309.707 61.189 315.536 61.189C321.032 61.189 325.696 65.6617 325.696 71.2931V135.232C325.696 140.863 321.034 145.5 315.536 145.5Z" fill="white"/>
<path d="M352.844 145.5C347.015 145.5 342.351 140.861 342.351 135.23V71.2931C342.351 65.6617 347.015 61.189 352.844 61.189C358.339 61.189 363.003 65.6617 363.003 71.2931V135.232C363.003 140.863 358.341 145.5 352.844 145.5Z" fill="white"/>
<path d="M89.3273 119.909C89.3273 123.553 88.5493 126.95 86.9954 130.096C85.4394 133.242 83.1908 135.95 80.2495 138.212C77.3063 140.476 73.6704 142.27 69.3399 143.595C65.0093 144.919 60.0676 145.583 54.5165 145.583C51.8531 145.583 48.9078 145.36 45.6887 144.919C42.4676 144.477 39.3319 143.814 36.2775 142.932C33.2231 142.049 30.4188 140.944 27.8665 139.618C25.3103 138.293 23.4249 136.748 22.2043 134.979C21.206 133.655 20.7059 132.162 20.7059 130.506C20.7059 127.968 21.6208 125.868 23.4546 124.212C25.2865 122.556 27.3108 121.727 29.5336 121.727C31.1988 121.727 32.6416 122.116 33.8642 122.885C37.0833 124.764 40.61 126.31 44.4404 127.524C48.2708 128.74 51.9622 129.346 55.5167 129.346C60.1807 129.346 63.5943 128.546 65.7595 126.944C67.9248 125.345 69.0084 123.274 69.0084 120.732C69.0084 118.525 67.8137 116.867 65.4281 115.762C63.0386 114.658 60.0973 113.748 56.6004 113.028C53.1034 112.312 49.271 111.512 45.1092 110.626C40.9454 109.744 37.115 108.417 33.6161 106.651C30.1191 104.886 27.1759 102.454 24.7883 99.3611C22.3988 96.2701 21.208 92.0737 21.208 86.772C21.208 83.4599 21.9284 80.2859 23.3733 77.2482C24.8161 74.2124 26.9536 71.5339 29.7857 69.2147C32.6178 66.8954 36.0572 65.0479 40.1119 63.6662C44.1645 62.2865 48.8562 61.5956 54.185 61.5956C56.8484 61.5956 59.6528 61.7891 62.596 62.176C65.5373 62.5648 68.3674 63.1708 71.0903 63.9978C73.8093 64.8268 76.2782 65.8473 78.501 67.0612C80.7219 68.2771 82.387 69.7121 83.4984 71.3681C84.3855 72.584 84.8301 73.9637 84.8301 75.5092C84.8301 77.7199 83.9965 79.5951 82.3314 81.1406C80.6663 82.6881 78.7213 83.4599 76.5025 83.4599C74.9465 83.4599 73.6128 83.1283 72.5054 82.4651C69.9492 80.9195 67.0912 79.7313 63.9277 78.9043C60.7642 78.0752 57.5709 77.6627 54.3517 77.6627C50.4638 77.6627 47.3816 78.4365 45.1072 79.982C42.8308 81.5295 41.6936 83.4066 41.6936 85.6133C41.6936 87.601 42.8586 89.0912 45.1906 90.0861C47.5226 91.0809 50.4638 91.9375 54.0183 92.654C57.5709 93.3725 61.4012 94.2015 65.5115 95.1391C69.6177 96.0786 73.4481 97.486 77.0026 99.3631C80.5551 101.242 83.4984 103.781 85.8304 106.982C88.1603 110.194 89.3273 114.5 89.3273 119.909Z" fill="white"/>
<path d="M139.416 145.59C116.132 145.59 97.1885 126.75 97.1885 103.593C97.1885 80.436 116.132 61.5956 139.416 61.5956C162.7 61.5956 181.644 80.436 181.644 103.593C181.644 126.75 162.7 145.59 139.416 145.59ZM139.416 81.3439C127.081 81.3439 117.045 91.3256 117.045 103.593C117.045 115.86 127.081 125.842 139.416 125.842C151.751 125.842 161.787 115.86 161.787 103.593C161.787 91.3256 151.751 81.3439 139.416 81.3439Z" fill="white"/>
<path d="M355.416 25.6185C352.455 25.6185 349.762 26.637 347.688 28.3503C343.972 31.4196 339.285 33.0776 334.456 33.0776H333.66C328.778 33.0776 324.066 31.3545 320.311 28.2555C317.493 25.9284 313.589 24.9375 309.608 26.1257C304.484 27.6555 301.086 32.5032 301.086 37.8247V38.2353C301.086 44.4489 306.387 49.721 313.012 49.721C315.669 49.721 318.15 48.7657 320.127 47.1906C323.981 44.1193 328.669 42.2639 333.609 42.2639H335.008C339.696 42.2639 344.139 44.0462 347.761 47.005C349.839 48.7025 352.526 49.7349 355.477 49.721C361.799 49.6895 366.965 44.2377 366.965 37.951V37.2937C366.963 30.7011 361.664 25.6185 355.416 25.6185Z" fill="white"/>
<path d="M248.757 43.4639C244.926 47.6051 238.597 47.7709 234.433 43.9614C232.101 41.8079 229.103 40.6473 225.772 40.6473C218.776 40.6473 213.114 46.2786 213.114 53.2364C213.114 55.3899 213.281 67.8132 213.114 68.8061H227.271C232.766 68.8061 237.263 73.2788 237.263 78.7444C237.263 84.3757 232.766 88.8485 227.271 88.8485H213.114V135.559C213.114 141.025 208.617 145.498 203.121 145.498C197.459 145.498 192.962 141.025 192.962 135.559V135.228C192.962 122.141 192.962 108.891 192.962 95.8043V53.2384C192.962 35.1837 207.785 20.6069 225.772 20.6069C234.267 20.6069 242.094 23.7532 248.256 29.3865C252.254 33.1941 252.587 39.4886 248.757 43.4639Z" fill="white"/>
<path d="M277.903 89.0162V135.396C277.903 141.027 273.406 145.5 267.911 145.5C262.415 145.5 257.918 141.027 257.918 135.396V89.0162" fill="white"/>
<path d="M257.918 89.0162H251.422C245.76 89.0162 241.263 84.5435 241.263 79.0779C241.263 73.6124 245.76 69.1396 251.422 69.1396H257.918V47.9623C257.918 42.3309 262.415 37.8582 267.911 37.8582C273.406 37.8582 277.903 42.3309 277.903 47.9623V69.1396H283.565C289.061 69.1396 293.558 73.6124 293.558 79.0779C293.558 84.5435 289.061 89.0162 283.565 89.0162H277.903" fill="white"/>
</svg>
