<?xml version="1.0" encoding="utf-8"?>
<!-- Generator: Adobe Illustrator 25.4.1, SVG Export Plug-In . SVG Version: 6.00 Build 0)  -->
<svg version="1.1" id="Layer_1" xmlns="http://www.w3.org/2000/svg" xmlns:xlink="http://www.w3.org/1999/xlink" x="0px" y="0px"
	 viewBox="0 0 841 841" style="enable-background:new 0 0 841 841;" xml:space="preserve">
<style type="text/css">
	.st0{fill:#FFFFFF;}
	.st1{fill:#8B41D8;}
	.st2{fill:#EDDD72;}
	.st3{fill:#ED6A5A;}
</style>
<g>
	<g>
		<path class="st3" d="M570.66,335.04c-20.7,0-39.53,7.15-54.03,19.2c-25.97,21.57-58.75,33.22-92.51,33.22h-5.57
			c-34.13,0-67.07-12.11-93.33-33.9c-19.71-16.36-47-23.33-74.82-14.97c-35.82,10.76-59.58,44.83-59.58,82.23v2.89
			c0,43.67,37.06,80.73,83.38,80.73c18.57,0,35.92-6.71,49.74-17.78c26.95-21.6,59.72-34.64,94.26-34.64h9.78
			c32.77,0,63.84,12.53,89.16,33.33c14.53,11.93,33.31,19.19,53.94,19.09c44.18-0.22,80.3-38.55,80.3-82.73v-4.62
			C651.39,370.77,614.34,335.04,570.66,335.04z"/>
	</g>
	<g>
		<g>
			<path class="st3" d="M489.55,43.93c-3.36-6.3-10.88-12.36-20.46-13.52c-8.71-1.05-14.25,2.11-14.91,7.63
				c-2,16.55,47.82,15.05,43.88,47.72c-2.03,16.84-17.71,27.17-39.06,24.59c-19.02-2.3-29.28-11.2-34.28-21.08l14.38-10.49
				c4.88,8.39,12.53,13.3,22.26,14.47c10.16,1.23,16.31-2.15,17.12-8.83c2.17-18-47.73-15.78-43.82-48.15
				c1.91-15.82,17.34-25.3,37.23-22.9c15.24,1.84,26.49,9.97,31.64,19.73L489.55,43.93z"/>
			<path class="st3" d="M610.98,109.4c-10.87,24.62-39.67,35.88-64.15,25.07c-24.48-10.81-35.42-39.63-24.55-64.24
				c10.93-24.75,39.59-36.08,64.08-25.26C610.84,55.77,621.85,84.78,610.98,109.4z M593.18,101.54c6.85-15.52,0.5-33.35-14.22-39.85
				c-14.58-6.44-32.04,0.88-38.9,16.4c-6.79,15.38-0.44,33.22,14.14,39.66C568.93,124.24,586.33,117.06,593.18,101.54z"/>
			<path class="st3" d="M664.26,91.67l45.27,38.42l-11.17,13.16l-31.33-26.59l-14.67,17.28l26.87,22.8l-11.17,13.16L641.2,147.1
				l-23.66,27.88l-13.94-11.83L664.26,91.67z"/>
			<path class="st3" d="M742.46,197.91l-62.01,45.03l-10.74-14.79l62.01-45.03l-16.33-22.48l13.84-10.05l43.48,59.88l-13.85,10.05
				L742.46,197.91z"/>
			<path class="st3" d="M786.11,238.26l7.78,16.54l-84.83,39.9l-7.78-16.54L786.11,238.26z"/>
			<path class="st3" d="M807.05,288.46l5.5,17.44l-89.41,28.19l-5.5-17.44L807.05,288.46z"/>
			<path class="st3" d="M798.22,480.53c6.23-3.49,12.14-11.13,13.1-20.73c0.88-8.73-2.4-14.2-7.93-14.76
				c-16.59-1.66-14.08,48.11-46.82,44.83c-16.88-1.69-27.52-17.16-25.38-38.55c1.91-19.06,10.6-29.5,20.38-34.7l10.78,14.16
				c-8.29,5.05-13.04,12.8-14.02,22.55c-1.02,10.19,2.48,16.27,9.18,16.94c18.04,1.81,14.81-48.04,47.25-44.79
				c15.86,1.59,25.65,16.83,23.65,36.76c-1.53,15.28-9.43,26.68-19.08,32.03L798.22,480.53z"/>
			<path class="st3" d="M735.25,603.31c-24.83-10.37-36.68-38.93-26.37-63.62c10.31-24.7,38.89-36.22,63.72-25.85
				c24.97,10.42,36.87,38.85,26.56,63.54C788.85,602.07,760.08,613.67,735.25,603.31z M742.74,585.36
				c15.65,6.53,33.35-0.18,39.55-15.03c6.14-14.71-1.53-32.02-17.19-38.55c-15.52-6.48-33.22,0.24-39.36,14.95
				C719.55,561.57,727.08,578.82,742.74,585.36z"/>
			<path class="st3" d="M754.03,656.19l-37.49,46.03l-13.38-10.9l25.94-31.86l-17.57-14.31l-22.25,27.32l-13.38-10.9l22.25-27.32
				l-28.35-23.08l11.54-14.17L754.03,656.19z"/>
			<path class="st3" d="M649.36,736.57l-46.26-61.09l14.57-11.04l46.26,61.09l22.15-16.78l10.33,13.64l-58.99,44.67l-10.33-13.64
				L649.36,736.57z"/>
			<path class="st3" d="M609.97,780.99l-16.38,8.12l-41.62-84l16.38-8.12L609.97,780.99z"/>
			<path class="st3" d="M560.22,802.92l-17.32,5.85l-30.02-88.81l17.32-5.85L560.22,802.92z"/>
			<path class="st3" d="M367.88,798c3.62,6.16,11.37,11.92,20.99,12.69c8.75,0.7,14.15-2.68,14.6-8.22
				c1.33-16.62-48.39-13.12-45.77-45.92c1.35-16.91,16.61-27.87,38.04-26.15c19.1,1.53,29.72,10.01,35.11,19.69l-13.94,11.06
				c-5.21-8.19-13.06-12.78-22.83-13.57c-10.2-0.82-16.22,2.81-16.75,9.51c-1.45,18.08,48.34,13.85,45.73,46.36
				c-1.27,15.89-16.31,25.99-36.29,24.39c-15.31-1.23-26.87-8.9-32.42-18.44L367.88,798z"/>
			<path class="st3" d="M243.94,737.52c9.86-25.03,38.17-37.46,63.07-27.65c24.9,9.81,37,38.15,27.14,63.18
				c-9.91,25.17-38.09,37.65-62.99,27.84C246.26,791.08,234.08,762.55,243.94,737.52z M262.04,744.65
				c-6.22,15.78,0.86,33.34,15.82,39.23c14.83,5.84,31.98-2.18,38.19-17.96c6.16-15.65-0.91-33.2-15.74-39.04
				C285.35,720.98,268.25,728.86,262.04,744.65z"/>
			<path class="st3" d="M191.44,757.39l-46.78-36.55l10.62-13.6l32.38,25.3l13.96-17.86l-27.77-21.7l10.62-13.6l27.77,21.7
				l22.51-28.81l14.4,11.26L191.44,757.39z"/>
			<path class="st3" d="M108.98,654.35l60.14-47.48l11.33,14.35l-60.14,47.48l17.22,21.81l-13.43,10.6l-45.85-58.08l13.43-10.6
				L108.98,654.35z"/>
			<path class="st3" d="M63.73,615.81l-8.44-16.21l83.15-43.31l8.44,16.21L63.73,615.81z"/>
			<path class="st3" d="M40.85,566.61l-6.21-17.19l88.16-31.82l6.21,17.19L40.85,566.61z"/>
			<path class="st3" d="M41.86,374.2c-6.08,3.74-11.68,11.61-12.26,21.24c-0.52,8.76,2.97,14.1,8.51,14.43
				c16.64,1,12.14-48.65,44.99-46.68c16.93,1.01,28.2,16.04,26.91,37.5c-1.14,19.12-9.41,29.91-18.97,35.49L79.7,422.47
				c8.09-5.38,12.52-13.31,13.1-23.1c0.61-10.22-3.14-16.16-9.85-16.56c-18.1-1.08-12.87,48.6-45.42,46.66
				c-15.91-0.95-26.31-15.79-25.11-35.78c0.92-15.33,8.36-27.04,17.78-32.78L41.86,374.2z"/>
			<path class="st3" d="M99.8,249.04c25.23,9.35,38.23,37.4,28.93,62.49c-9.3,25.09-37.38,37.77-62.62,28.42
				c-25.37-9.4-38.42-37.31-29.12-62.41S74.57,239.69,99.8,249.04z M93.04,267.28c-15.91-5.89-33.32,1.54-38.91,16.62
				c-5.54,14.95,2.83,31.93,18.74,37.82c15.77,5.84,33.18-1.59,38.72-16.53C117.18,290.1,108.95,273.17,93.04,267.28z"/>
			<path class="st3" d="M78.87,196.94l35.61-47.52l13.81,10.35l-24.65,32.89l18.14,13.6l21.14-28.21l13.81,10.35l-21.14,28.21
				l29.26,21.93l-10.96,14.63L78.87,196.94z"/>
			<path class="st3" d="M180.23,112.42l48.69,59.18l-14.12,11.61l-48.69-59.18l-21.46,17.65l-10.87-13.21l57.14-47.01l10.87,13.21
				L180.23,112.42z"/>
			<path class="st3" d="M217.85,66.43l16.04-8.77l44.98,82.24l-16.04,8.77L217.85,66.43z"/>
			<path class="st3" d="M266.63,42.49l17.07-6.55l33.6,87.52l-17.07,6.55L266.63,42.49z"/>
		</g>
	</g>
</g>
</svg>
